<?xml version="1.0" standalone="no"?><!DOCTYPE svg PUBLIC "-//W3C//DTD SVG 1.1//EN" "http://www.w3.org/Graphics/SVG/1.1/DTD/svg11.dtd"><svg t="1648059283911" class="icon" viewBox="0 0 1024 1024" version="1.1" xmlns="http://www.w3.org/2000/svg" p-id="895" xmlns:xlink="http://www.w3.org/1999/xlink" width="200" height="200"><defs><style type="text/css">@font-face { font-family: feedback-iconfont; src: url("//at.alicdn.com/t/font_1031158_u69w8yhxdu.woff2?t=1630033759944") format("woff2"), url("//at.alicdn.com/t/font_1031158_u69w8yhxdu.woff?t=1630033759944") format("woff"), url("//at.alicdn.com/t/font_1031158_u69w8yhxdu.ttf?t=1630033759944") format("truetype"); }
</style></defs><path d="M512 512m-280 0a280 280 0 1 0 560 0 280 280 0 1 0-560 0Z" fill="#FFCC00" p-id="896"></path><path d="M492 40h40v104h-40zM164.328 192.68l28.288-28.288 73.536 73.536-28.28 28.288zM40 492h104v40H40zM163.256 831.48l73.544-73.536 28.28 28.288-73.536 73.536zM492 880h40v104h-40zM758.744 785.944l28.28-28.28 73.536 73.536-28.28 28.288zM880 492h104v40h-104zM757.992 237.872l73.536-73.536 28.28 28.28-73.536 73.544z" fill="#FFCC00" p-id="897"></path></svg>